M48
; DRILL file {KiCad (6.0.7)} date Thu Sep  1 13:19:57 2022
; FORMAT={-:-/ absolute / metric / decimal}
; #@! TF.CreationDate,2022-09-01T13:19:57+09:00
; #@! TF.GenerationSoftware,Kicad,Pcbnew,(6.0.7)
; #@! TF.FileFunction,Plated,1,2,PTH
FMAT,2
METRIC
; #@! TA.AperFunction,Plated,PTH,ViaDrill
T1C0.300
; #@! TA.AperFunction,Plated,PTH,ViaDrill
T2C0.400
; #@! TA.AperFunction,Plated,PTH,ViaDrill
T3C0.500
; #@! TA.AperFunction,Plated,PTH,ComponentDrill
T4C0.700
%
G90
G05
T1
X12.25Y70.75
X12.25Y61.75
X12.25Y52.75
X12.25Y43.75
X12.25Y34.75
X12.25Y25.75
X12.25Y16.75
X12.25Y7.75
X14.75Y67.5
X14.75Y58.5
X14.75Y49.5
X14.75Y40.5
X14.75Y31.5
X14.75Y22.5
X14.75Y13.5
X14.75Y4.5
X15.75Y66.25
X15.75Y57.25
X15.75Y48.25
X15.75Y39.25
X15.75Y30.25
X15.75Y21.25
X15.75Y12.25
X15.75Y3.25
X17.25Y70.809
X17.25Y61.809
X17.25Y52.809
X17.25Y43.809
X17.25Y34.809
X17.25Y25.809
X17.25Y16.809
X17.25Y7.809
X17.75Y64.25
X17.75Y55.25
X17.75Y46.25
X17.75Y37.25
X17.75Y28.25
X17.75Y19.25
X17.75Y10.25
X17.75Y1.25
X19.25Y66.75
X19.25Y57.75
X19.25Y48.75
X19.25Y39.75
X19.25Y30.75
X19.25Y21.75
X19.25Y12.75
X19.25Y3.75
X27.75Y70.75
X27.75Y61.75
X27.75Y52.75
X27.75Y43.75
X27.75Y34.75
X27.75Y25.75
X27.75Y16.75
X27.75Y7.75
X30.25Y67.5
X30.25Y58.5
X30.25Y49.5
X30.25Y40.5
X30.25Y31.5
X30.25Y22.5
X30.25Y13.5
X30.25Y4.5
X31.25Y66.25
X31.25Y57.25
X31.25Y48.25
X31.25Y39.25
X31.25Y30.25
X31.25Y21.25
X31.25Y12.25
X31.25Y3.25
X32.75Y70.809
X32.75Y61.809
X32.75Y52.809
X32.75Y43.809
X32.75Y34.809
X32.75Y25.809
X32.75Y16.809
X32.75Y7.809
X33.25Y64.25
X33.25Y55.25
X33.25Y46.25
X33.25Y37.25
X33.25Y28.25
X33.25Y19.25
X33.25Y10.25
X33.25Y1.25
X34.75Y66.75
X34.75Y57.75
X34.75Y48.75
X34.75Y39.75
X34.75Y30.75
X34.75Y21.75
X34.75Y12.75
X34.75Y3.75
X43.25Y70.75
X43.25Y61.75
X43.25Y52.75
X43.25Y43.75
X43.25Y34.75
X43.25Y25.75
X43.25Y16.75
X43.25Y7.75
X45.75Y67.5
X45.75Y58.5
X45.75Y49.5
X45.75Y40.5
X45.75Y31.5
X45.75Y22.5
X45.75Y13.5
X45.75Y4.5
X46.75Y66.25
X46.75Y57.25
X46.75Y48.25
X46.75Y39.25
X46.75Y30.25
X46.75Y21.25
X46.75Y12.25
X46.75Y3.25
X48.25Y70.809
X48.25Y61.809
X48.25Y52.809
X48.25Y43.809
X48.25Y34.809
X48.25Y25.809
X48.25Y16.809
X48.25Y7.809
X48.75Y64.25
X48.75Y55.25
X48.75Y46.25
X48.75Y37.25
X48.75Y28.25
X48.75Y19.25
X48.75Y10.25
X48.75Y1.25
X50.25Y66.75
X50.25Y57.75
X50.25Y48.75
X50.25Y39.75
X50.25Y30.75
X50.25Y21.75
X50.25Y12.75
X50.25Y3.75
X58.75Y70.75
X58.75Y61.75
X58.75Y52.75
X58.75Y43.75
X58.75Y34.75
X58.75Y25.75
X58.75Y16.75
X58.75Y7.75
X61.25Y67.5
X61.25Y58.5
X61.25Y49.5
X61.25Y40.5
X61.25Y31.5
X61.25Y22.5
X61.25Y13.5
X61.25Y4.5
X62.25Y66.25
X62.25Y57.25
X62.25Y48.25
X62.25Y39.25
X62.25Y30.25
X62.25Y21.25
X62.25Y12.25
X62.25Y3.25
X63.75Y70.809
X63.75Y61.809
X63.75Y52.809
X63.75Y43.809
X63.75Y34.809
X63.75Y25.809
X63.75Y16.809
X63.75Y7.809
X64.25Y64.25
X64.25Y55.25
X64.25Y46.25
X64.25Y37.25
X64.25Y28.25
X64.25Y19.25
X64.25Y10.25
X64.25Y1.25
X65.75Y66.75
X65.75Y57.75
X65.75Y48.75
X65.75Y39.75
X65.75Y30.75
X65.75Y21.75
X65.75Y12.75
X65.75Y3.75
X74.25Y70.75
X74.25Y61.75
X74.25Y52.75
X74.25Y43.75
X74.25Y34.75
X74.25Y25.75
X74.25Y16.75
X74.25Y7.75
X76.75Y67.5
X76.75Y58.5
X76.75Y49.5
X76.75Y40.5
X76.75Y31.5
X76.75Y22.5
X76.75Y13.5
X76.75Y4.5
X77.75Y66.25
X77.75Y57.25
X77.75Y48.25
X77.75Y39.25
X77.75Y30.25
X77.75Y21.25
X77.75Y12.25
X77.75Y3.25
X79.25Y70.809
X79.25Y61.809
X79.25Y52.809
X79.25Y43.809
X79.25Y34.809
X79.25Y25.809
X79.25Y16.809
X79.25Y7.809
X79.75Y64.25
X79.75Y55.25
X79.75Y46.25
X79.75Y37.25
X79.75Y28.25
X79.75Y19.25
X79.75Y10.25
X79.75Y1.25
X81.25Y66.75
X81.25Y57.75
X81.25Y48.75
X81.25Y39.75
X81.25Y30.75
X81.25Y21.75
X81.25Y12.75
X81.25Y3.75
T2
X12.25Y67.75
X12.25Y67.0
X12.25Y66.25
X12.25Y58.75
X12.25Y58.0
X12.25Y57.25
X12.25Y49.75
X12.25Y49.0
X12.25Y48.25
X12.25Y40.75
X12.25Y40.0
X12.25Y39.25
X12.25Y31.75
X12.25Y31.0
X12.25Y30.25
X12.25Y22.75
X12.25Y22.0
X12.25Y21.25
X12.25Y13.75
X12.25Y13.0
X12.25Y12.25
X12.25Y4.75
X12.25Y4.0
X12.25Y3.25
X27.75Y67.75
X27.75Y67.0
X27.75Y66.25
X27.75Y58.75
X27.75Y58.0
X27.75Y57.25
X27.75Y49.75
X27.75Y49.0
X27.75Y48.25
X27.75Y40.75
X27.75Y40.0
X27.75Y39.25
X27.75Y31.75
X27.75Y31.0
X27.75Y30.25
X27.75Y22.75
X27.75Y22.0
X27.75Y21.25
X27.75Y13.75
X27.75Y13.0
X27.75Y12.25
X27.75Y4.75
X27.75Y4.0
X27.75Y3.25
X43.25Y67.75
X43.25Y67.0
X43.25Y66.25
X43.25Y58.75
X43.25Y58.0
X43.25Y57.25
X43.25Y49.75
X43.25Y49.0
X43.25Y48.25
X43.25Y40.75
X43.25Y40.0
X43.25Y39.25
X43.25Y31.75
X43.25Y31.0
X43.25Y30.25
X43.25Y22.75
X43.25Y22.0
X43.25Y21.25
X43.25Y13.75
X43.25Y13.0
X43.25Y12.25
X43.25Y4.75
X43.25Y4.0
X43.25Y3.25
X58.75Y67.75
X58.75Y67.0
X58.75Y66.25
X58.75Y58.75
X58.75Y58.0
X58.75Y57.25
X58.75Y49.75
X58.75Y49.0
X58.75Y48.25
X58.75Y40.75
X58.75Y40.0
X58.75Y39.25
X58.75Y31.75
X58.75Y31.0
X58.75Y30.25
X58.75Y22.75
X58.75Y22.0
X58.75Y21.25
X58.75Y13.75
X58.75Y13.0
X58.75Y12.25
X58.75Y4.75
X58.75Y4.0
X58.75Y3.25
X74.25Y67.75
X74.25Y67.0
X74.25Y66.25
X74.25Y58.75
X74.25Y58.0
X74.25Y57.25
X74.25Y49.75
X74.25Y49.0
X74.25Y48.25
X74.25Y40.75
X74.25Y40.0
X74.25Y39.25
X74.25Y31.75
X74.25Y31.0
X74.25Y30.25
X74.25Y22.75
X74.25Y22.0
X74.25Y21.25
X74.25Y13.75
X74.25Y13.0
X74.25Y12.25
X74.25Y4.75
X74.25Y4.0
X74.25Y3.25
T3
X8.75Y70.5
X8.75Y64.5
X8.75Y61.5
X8.75Y55.5
X8.75Y52.5
X8.75Y46.5
X8.75Y43.5
X8.75Y37.5
X8.75Y34.5
X8.75Y28.5
X8.75Y25.5
X8.75Y19.5
X8.75Y16.5
X8.75Y10.5
X8.75Y7.5
X8.75Y1.5
X12.25Y69.5
X12.25Y64.25
X12.25Y60.5
X12.25Y55.25
X12.25Y51.5
X12.25Y46.25
X12.25Y42.5
X12.25Y37.25
X12.25Y33.5
X12.25Y28.25
X12.25Y24.5
X12.25Y19.25
X12.25Y15.5
X12.25Y10.25
X12.25Y6.5
X12.25Y1.25
X24.25Y70.5
X24.25Y64.5
X24.25Y61.5
X24.25Y55.5
X24.25Y52.5
X24.25Y46.5
X24.25Y43.5
X24.25Y37.5
X24.25Y34.5
X24.25Y28.5
X24.25Y25.5
X24.25Y19.5
X24.25Y16.5
X24.25Y10.5
X24.25Y7.5
X24.25Y1.5
X27.75Y69.5
X27.75Y64.25
X27.75Y60.5
X27.75Y55.25
X27.75Y51.5
X27.75Y46.25
X27.75Y42.5
X27.75Y37.25
X27.75Y33.5
X27.75Y28.25
X27.75Y24.5
X27.75Y19.25
X27.75Y15.5
X27.75Y10.25
X27.75Y6.5
X27.75Y1.25
X39.75Y70.5
X39.75Y64.5
X39.75Y61.5
X39.75Y55.5
X39.75Y52.5
X39.75Y46.5
X39.75Y43.5
X39.75Y37.5
X39.75Y34.5
X39.75Y28.5
X39.75Y25.5
X39.75Y19.5
X39.75Y16.5
X39.75Y10.5
X39.75Y7.5
X39.75Y1.5
X43.25Y69.5
X43.25Y64.25
X43.25Y60.5
X43.25Y55.25
X43.25Y51.5
X43.25Y46.25
X43.25Y42.5
X43.25Y37.25
X43.25Y33.5
X43.25Y28.25
X43.25Y24.5
X43.25Y19.25
X43.25Y15.5
X43.25Y10.25
X43.25Y6.5
X43.25Y1.25
X55.25Y70.5
X55.25Y64.5
X55.25Y61.5
X55.25Y55.5
X55.25Y52.5
X55.25Y46.5
X55.25Y43.5
X55.25Y37.5
X55.25Y34.5
X55.25Y28.5
X55.25Y25.5
X55.25Y19.5
X55.25Y16.5
X55.25Y10.5
X55.25Y7.5
X55.25Y1.5
X58.75Y69.5
X58.75Y64.25
X58.75Y60.5
X58.75Y55.25
X58.75Y51.5
X58.75Y46.25
X58.75Y42.5
X58.75Y37.25
X58.75Y33.5
X58.75Y28.25
X58.75Y24.5
X58.75Y19.25
X58.75Y15.5
X58.75Y10.25
X58.75Y6.5
X58.75Y1.25
X70.75Y70.5
X70.75Y64.5
X70.75Y61.5
X70.75Y55.5
X70.75Y52.5
X70.75Y46.5
X70.75Y43.5
X70.75Y37.5
X70.75Y34.5
X70.75Y28.5
X70.75Y25.5
X70.75Y19.5
X70.75Y16.5
X70.75Y10.5
X70.75Y7.5
X70.75Y1.5
X74.25Y69.5
X74.25Y64.25
X74.25Y60.5
X74.25Y55.25
X74.25Y51.5
X74.25Y46.25
X74.25Y42.5
X74.25Y37.25
X74.25Y33.5
X74.25Y28.25
X74.25Y24.5
X74.25Y19.25
X74.25Y15.5
X74.25Y10.25
X74.25Y6.5
X74.25Y1.25
T4
X6.0Y70.5
X6.0Y68.5
X6.0Y66.5
X6.0Y64.5
X6.0Y61.5
X6.0Y59.5
X6.0Y57.5
X6.0Y55.5
X6.0Y52.5
X6.0Y50.5
X6.0Y48.5
X6.0Y46.5
X6.0Y43.5
X6.0Y41.5
X6.0Y39.5
X6.0Y37.5
X6.0Y34.5
X6.0Y32.5
X6.0Y30.5
X6.0Y28.5
X6.0Y25.5
X6.0Y23.5
X6.0Y21.5
X6.0Y19.5
X6.0Y16.5
X6.0Y14.5
X6.0Y12.5
X6.0Y10.5
X6.0Y7.5
X6.0Y5.5
X6.0Y3.5
X6.0Y1.5
X19.65Y65.785
X19.65Y64.515
X19.65Y56.785
X19.65Y55.515
X19.65Y47.785
X19.65Y46.515
X19.65Y38.785
X19.65Y37.515
X19.65Y29.785
X19.65Y28.515
X19.65Y20.785
X19.65Y19.515
X19.65Y11.785
X19.65Y10.515
X19.65Y2.785
X19.65Y1.515
X21.5Y70.5
X21.5Y68.5
X21.5Y66.5
X21.5Y64.5
X21.5Y61.5
X21.5Y59.5
X21.5Y57.5
X21.5Y55.5
X21.5Y52.5
X21.5Y50.5
X21.5Y48.5
X21.5Y46.5
X21.5Y43.5
X21.5Y41.5
X21.5Y39.5
X21.5Y37.5
X21.5Y34.5
X21.5Y32.5
X21.5Y30.5
X21.5Y28.5
X21.5Y25.5
X21.5Y23.5
X21.5Y21.5
X21.5Y19.5
X21.5Y16.5
X21.5Y14.5
X21.5Y12.5
X21.5Y10.5
X21.5Y7.5
X21.5Y5.5
X21.5Y3.5
X21.5Y1.5
X35.15Y65.785
X35.15Y64.515
X35.15Y56.785
X35.15Y55.515
X35.15Y47.785
X35.15Y46.515
X35.15Y38.785
X35.15Y37.515
X35.15Y29.785
X35.15Y28.515
X35.15Y20.785
X35.15Y19.515
X35.15Y11.785
X35.15Y10.515
X35.15Y2.785
X35.15Y1.515
X37.0Y70.5
X37.0Y68.5
X37.0Y66.5
X37.0Y64.5
X37.0Y61.5
X37.0Y59.5
X37.0Y57.5
X37.0Y55.5
X37.0Y52.5
X37.0Y50.5
X37.0Y48.5
X37.0Y46.5
X37.0Y43.5
X37.0Y41.5
X37.0Y39.5
X37.0Y37.5
X37.0Y34.5
X37.0Y32.5
X37.0Y30.5
X37.0Y28.5
X37.0Y25.5
X37.0Y23.5
X37.0Y21.5
X37.0Y19.5
X37.0Y16.5
X37.0Y14.5
X37.0Y12.5
X37.0Y10.5
X37.0Y7.5
X37.0Y5.5
X37.0Y3.5
X37.0Y1.5
X50.65Y65.785
X50.65Y64.515
X50.65Y56.785
X50.65Y55.515
X50.65Y47.785
X50.65Y46.515
X50.65Y38.785
X50.65Y37.515
X50.65Y29.785
X50.65Y28.515
X50.65Y20.785
X50.65Y19.515
X50.65Y11.785
X50.65Y10.515
X50.65Y2.785
X50.65Y1.515
X52.5Y70.5
X52.5Y68.5
X52.5Y66.5
X52.5Y64.5
X52.5Y61.5
X52.5Y59.5
X52.5Y57.5
X52.5Y55.5
X52.5Y52.5
X52.5Y50.5
X52.5Y48.5
X52.5Y46.5
X52.5Y43.5
X52.5Y41.5
X52.5Y39.5
X52.5Y37.5
X52.5Y34.5
X52.5Y32.5
X52.5Y30.5
X52.5Y28.5
X52.5Y25.5
X52.5Y23.5
X52.5Y21.5
X52.5Y19.5
X52.5Y16.5
X52.5Y14.5
X52.5Y12.5
X52.5Y10.5
X52.5Y7.5
X52.5Y5.5
X52.5Y3.5
X52.5Y1.5
X66.15Y65.785
X66.15Y64.515
X66.15Y56.785
X66.15Y55.515
X66.15Y47.785
X66.15Y46.515
X66.15Y38.785
X66.15Y37.515
X66.15Y29.785
X66.15Y28.515
X66.15Y20.785
X66.15Y19.515
X66.15Y11.785
X66.15Y10.515
X66.15Y2.785
X66.15Y1.515
X68.0Y70.5
X68.0Y68.5
X68.0Y66.5
X68.0Y64.5
X68.0Y61.5
X68.0Y59.5
X68.0Y57.5
X68.0Y55.5
X68.0Y52.5
X68.0Y50.5
X68.0Y48.5
X68.0Y46.5
X68.0Y43.5
X68.0Y41.5
X68.0Y39.5
X68.0Y37.5
X68.0Y34.5
X68.0Y32.5
X68.0Y30.5
X68.0Y28.5
X68.0Y25.5
X68.0Y23.5
X68.0Y21.5
X68.0Y19.5
X68.0Y16.5
X68.0Y14.5
X68.0Y12.5
X68.0Y10.5
X68.0Y7.5
X68.0Y5.5
X68.0Y3.5
X68.0Y1.5
X81.65Y65.785
X81.65Y64.515
X81.65Y56.785
X81.65Y55.515
X81.65Y47.785
X81.65Y46.515
X81.65Y38.785
X81.65Y37.515
X81.65Y29.785
X81.65Y28.515
X81.65Y20.785
X81.65Y19.515
X81.65Y11.785
X81.65Y10.515
X81.65Y2.785
X81.65Y1.515
T0
M30
