G04 #@! TF.GenerationSoftware,KiCad,Pcbnew,(6.0.7)*
G04 #@! TF.CreationDate,2022-09-01T13:19:57+09:00*
G04 #@! TF.ProjectId,switchdecoder3,73776974-6368-4646-9563-6f646572332e,rev?*
G04 #@! TF.SameCoordinates,Original*
G04 #@! TF.FileFunction,Soldermask,Top*
G04 #@! TF.FilePolarity,Negative*
%FSLAX46Y46*%
G04 Gerber Fmt 4.6, Leading zero omitted, Abs format (unit mm)*
G04 Created by KiCad (PCBNEW (6.0.7)) date 2022-09-01 13:19:57*
%MOMM*%
%LPD*%
G01*
G04 APERTURE LIST*
%ADD10R,0.900000X0.700000*%
%ADD11R,1.000000X0.700000*%
%ADD12R,0.700000X0.900000*%
%ADD13R,0.700000X0.300000*%
%ADD14R,1.800000X1.000000*%
%ADD15C,1.400000*%
%ADD16R,0.500000X0.550000*%
%ADD17R,2.200000X0.800000*%
%ADD18C,2.000000*%
%ADD19R,0.950000X0.950000*%
G04 APERTURE END LIST*
D10*
X61250000Y37700000D03*
X61250000Y39300000D03*
D11*
X59950000Y40550000D03*
X59950000Y41500000D03*
X59950000Y42450000D03*
X57550000Y42450000D03*
X57550000Y41500000D03*
X57550000Y40550000D03*
X13450000Y55300000D03*
X13450000Y56250000D03*
X13450000Y57200000D03*
X11050000Y57200000D03*
X11050000Y56250000D03*
X11050000Y55300000D03*
D12*
X48800000Y65900000D03*
X47200000Y65900000D03*
D11*
X13450000Y49550000D03*
X13450000Y50500000D03*
X13450000Y51450000D03*
X11050000Y51450000D03*
X11050000Y50500000D03*
X11050000Y49550000D03*
D13*
X15900000Y5150000D03*
X15900000Y4650000D03*
X15900000Y4150000D03*
X17400000Y4150000D03*
X17400000Y4650000D03*
X17400000Y5150000D03*
D10*
X14750000Y46700000D03*
X14750000Y48300000D03*
D13*
X15900000Y32150000D03*
X15900000Y31650000D03*
X15900000Y31150000D03*
X17400000Y31150000D03*
X17400000Y31650000D03*
X17400000Y32150000D03*
D14*
X34700000Y7600000D03*
D15*
X52500000Y70500000D03*
X52500000Y68500000D03*
X52500000Y66500000D03*
X52500000Y64500000D03*
D16*
X41000000Y31475000D03*
X41000000Y30525000D03*
D17*
X23500000Y1500000D03*
D16*
X56500000Y13475000D03*
X56500000Y12525000D03*
D14*
X81200000Y43600000D03*
D13*
X31400000Y32150000D03*
X31400000Y31650000D03*
X31400000Y31150000D03*
X32900000Y31150000D03*
X32900000Y31650000D03*
X32900000Y32150000D03*
D17*
X8000000Y52500000D03*
D10*
X47500000Y34850000D03*
X47500000Y33250000D03*
X61250000Y51550000D03*
X61250000Y49950000D03*
D12*
X64300000Y11900000D03*
X62700000Y11900000D03*
D10*
X30250000Y55700000D03*
X30250000Y57300000D03*
D17*
X54500000Y50500000D03*
D16*
X25500000Y49475000D03*
X25500000Y48525000D03*
D17*
X23500000Y68500000D03*
D11*
X28950000Y31550000D03*
X28950000Y32500000D03*
X28950000Y33450000D03*
X26550000Y33450000D03*
X26550000Y32500000D03*
X26550000Y31550000D03*
D17*
X8000000Y25500000D03*
D10*
X30250000Y6550000D03*
X30250000Y4950000D03*
D15*
X68000000Y7500000D03*
X68000000Y5500000D03*
X68000000Y3500000D03*
X68000000Y1500000D03*
D10*
X61250000Y19700000D03*
X61250000Y21300000D03*
D15*
X21500000Y16500000D03*
X21500000Y14500000D03*
X21500000Y12500000D03*
X21500000Y10500000D03*
D10*
X30250000Y42550000D03*
X30250000Y40950000D03*
X47500000Y43850000D03*
X47500000Y42250000D03*
D17*
X54500000Y12500000D03*
D12*
X79800000Y56900000D03*
X78200000Y56900000D03*
D10*
X76750000Y10700000D03*
X76750000Y12300000D03*
D17*
X39000000Y55500000D03*
D12*
X10200000Y61750000D03*
X11800000Y61750000D03*
D13*
X15900000Y14150000D03*
X15900000Y13650000D03*
X15900000Y13150000D03*
X17400000Y13150000D03*
X17400000Y13650000D03*
X17400000Y14150000D03*
X15900000Y50150000D03*
X15900000Y49650000D03*
X15900000Y49150000D03*
X17400000Y49150000D03*
X17400000Y49650000D03*
X17400000Y50150000D03*
D12*
X13200000Y25750000D03*
X14800000Y25750000D03*
D10*
X80500000Y33300000D03*
X80500000Y31700000D03*
D15*
X68000000Y25500000D03*
X68000000Y23500000D03*
X68000000Y21500000D03*
X68000000Y19500000D03*
D12*
X33300000Y2900000D03*
X31700000Y2900000D03*
D16*
X72000000Y49475000D03*
X72000000Y48525000D03*
D17*
X39000000Y70500000D03*
X39000000Y16500000D03*
D11*
X13450000Y19300000D03*
X13450000Y20250000D03*
X13450000Y21200000D03*
X11050000Y21200000D03*
X11050000Y20250000D03*
X11050000Y19300000D03*
D17*
X54500000Y7500000D03*
D10*
X81750000Y69300000D03*
X81750000Y67700000D03*
D12*
X72200000Y52750000D03*
X73800000Y52750000D03*
X16700000Y19500000D03*
X18300000Y19500000D03*
D10*
X32000000Y25850000D03*
X32000000Y24250000D03*
D12*
X79800000Y65900000D03*
X78200000Y65900000D03*
D17*
X70000000Y3500000D03*
D10*
X32000000Y7850000D03*
X32000000Y6250000D03*
D14*
X81200000Y34600000D03*
D11*
X59950000Y31550000D03*
X59950000Y32500000D03*
X59950000Y33450000D03*
X57550000Y33450000D03*
X57550000Y32500000D03*
X57550000Y31550000D03*
D17*
X54500000Y59500000D03*
D12*
X10200000Y43750000D03*
X11800000Y43750000D03*
D13*
X62400000Y50150000D03*
X62400000Y49650000D03*
X62400000Y49150000D03*
X63900000Y49150000D03*
X63900000Y49650000D03*
X63900000Y50150000D03*
D10*
X66250000Y69300000D03*
X66250000Y67700000D03*
X14750000Y1700000D03*
X14750000Y3300000D03*
X78500000Y61850000D03*
X78500000Y60250000D03*
D17*
X23500000Y32500000D03*
D10*
X16500000Y25850000D03*
X16500000Y24250000D03*
D11*
X28950000Y13550000D03*
X28950000Y14500000D03*
X28950000Y15450000D03*
X26550000Y15450000D03*
X26550000Y14500000D03*
X26550000Y13550000D03*
D12*
X56700000Y43750000D03*
X58300000Y43750000D03*
D10*
X49500000Y42300000D03*
X49500000Y40700000D03*
D15*
X52500000Y7500000D03*
X52500000Y5500000D03*
X52500000Y3500000D03*
X52500000Y1500000D03*
D10*
X81750000Y51300000D03*
X81750000Y49700000D03*
D12*
X32200000Y46500000D03*
X33800000Y46500000D03*
D17*
X39000000Y57500000D03*
D15*
X6000000Y43500000D03*
X6000000Y41500000D03*
X6000000Y39500000D03*
X6000000Y37500000D03*
D12*
X64300000Y47900000D03*
X62700000Y47900000D03*
X79800000Y47900000D03*
X78200000Y47900000D03*
D10*
X49500000Y6300000D03*
X49500000Y4700000D03*
D17*
X8000000Y19500000D03*
D10*
X16500000Y7850000D03*
X16500000Y6250000D03*
D17*
X39000000Y61500000D03*
D15*
X6000000Y61500000D03*
X6000000Y59500000D03*
X6000000Y57500000D03*
X6000000Y55500000D03*
D12*
X59700000Y7750000D03*
X61300000Y7750000D03*
X33300000Y29900000D03*
X31700000Y29900000D03*
D13*
X31400000Y14150000D03*
X31400000Y13650000D03*
X31400000Y13150000D03*
X32900000Y13150000D03*
X32900000Y13650000D03*
X32900000Y14150000D03*
D14*
X50200000Y34600000D03*
D11*
X44450000Y22550000D03*
X44450000Y23500000D03*
X44450000Y24450000D03*
X42050000Y24450000D03*
X42050000Y23500000D03*
X42050000Y22550000D03*
D10*
X14750000Y64700000D03*
X14750000Y66300000D03*
D17*
X8000000Y57500000D03*
X8000000Y1500000D03*
D12*
X63200000Y1500000D03*
X64800000Y1500000D03*
X17800000Y38900000D03*
X16200000Y38900000D03*
X56700000Y52750000D03*
X58300000Y52750000D03*
D10*
X49500000Y60300000D03*
X49500000Y58700000D03*
D17*
X70000000Y23500000D03*
D10*
X80500000Y69300000D03*
X80500000Y67700000D03*
D16*
X56500000Y58475000D03*
X56500000Y57525000D03*
D14*
X65700000Y43600000D03*
D15*
X37000000Y34500000D03*
X37000000Y32500000D03*
X37000000Y30500000D03*
X37000000Y28500000D03*
D17*
X8000000Y37500000D03*
D10*
X35250000Y60300000D03*
X35250000Y58700000D03*
D17*
X23500000Y70500000D03*
D18*
X85000000Y13500000D03*
X85000000Y13500000D03*
D10*
X61250000Y33550000D03*
X61250000Y31950000D03*
X30250000Y51550000D03*
X30250000Y49950000D03*
D12*
X59700000Y52750000D03*
X61300000Y52750000D03*
D17*
X8000000Y12500000D03*
D16*
X56500000Y49475000D03*
X56500000Y48525000D03*
D14*
X34700000Y70600000D03*
D12*
X72200000Y16750000D03*
X73800000Y16750000D03*
X33300000Y65900000D03*
X31700000Y65900000D03*
D10*
X76750000Y60550000D03*
X76750000Y58950000D03*
D12*
X64300000Y2900000D03*
X62700000Y2900000D03*
D10*
X78500000Y16850000D03*
X78500000Y15250000D03*
D17*
X39000000Y34500000D03*
D13*
X46900000Y68150000D03*
X46900000Y67650000D03*
X46900000Y67150000D03*
X48400000Y67150000D03*
X48400000Y67650000D03*
X48400000Y68150000D03*
D11*
X75450000Y55300000D03*
X75450000Y56250000D03*
X75450000Y57200000D03*
X73050000Y57200000D03*
X73050000Y56250000D03*
X73050000Y55300000D03*
D10*
X18500000Y51300000D03*
X18500000Y49700000D03*
D17*
X54500000Y41500000D03*
D10*
X34000000Y42300000D03*
X34000000Y40700000D03*
D11*
X75450000Y46300000D03*
X75450000Y47250000D03*
X75450000Y48200000D03*
X73050000Y48200000D03*
X73050000Y47250000D03*
X73050000Y46300000D03*
D12*
X78700000Y55500000D03*
X80300000Y55500000D03*
D17*
X54500000Y39500000D03*
D10*
X30250000Y15550000D03*
X30250000Y13950000D03*
D17*
X23500000Y64500000D03*
X8000000Y59500000D03*
X54500000Y52500000D03*
X39000000Y52500000D03*
D16*
X10000000Y49475000D03*
X10000000Y48525000D03*
D13*
X77900000Y50150000D03*
X77900000Y49650000D03*
X77900000Y49150000D03*
X79400000Y49150000D03*
X79400000Y49650000D03*
X79400000Y50150000D03*
D10*
X35250000Y15300000D03*
X35250000Y13700000D03*
X61250000Y42550000D03*
X61250000Y40950000D03*
D17*
X8000000Y61500000D03*
D12*
X33300000Y47900000D03*
X31700000Y47900000D03*
D11*
X75450000Y1300000D03*
X75450000Y2250000D03*
X75450000Y3200000D03*
X73050000Y3200000D03*
X73050000Y2250000D03*
X73050000Y1300000D03*
D17*
X23500000Y34500000D03*
D10*
X45750000Y15550000D03*
X45750000Y13950000D03*
X18500000Y24300000D03*
X18500000Y22700000D03*
D11*
X28950000Y46300000D03*
X28950000Y47250000D03*
X28950000Y48200000D03*
X26550000Y48200000D03*
X26550000Y47250000D03*
X26550000Y46300000D03*
D15*
X37000000Y25500000D03*
X37000000Y23500000D03*
X37000000Y21500000D03*
X37000000Y19500000D03*
D17*
X70000000Y43500000D03*
D12*
X33300000Y11900000D03*
X31700000Y11900000D03*
D17*
X70000000Y57500000D03*
D12*
X16700000Y1500000D03*
X18300000Y1500000D03*
D10*
X61250000Y15550000D03*
X61250000Y13950000D03*
D15*
X52500000Y61500000D03*
X52500000Y59500000D03*
X52500000Y57500000D03*
X52500000Y55500000D03*
D12*
X33300000Y20900000D03*
X31700000Y20900000D03*
X48800000Y47900000D03*
X47200000Y47900000D03*
D15*
X37000000Y7500000D03*
X37000000Y5500000D03*
X37000000Y3500000D03*
X37000000Y1500000D03*
D11*
X75450000Y28300000D03*
X75450000Y29250000D03*
X75450000Y30200000D03*
X73050000Y30200000D03*
X73050000Y29250000D03*
X73050000Y28300000D03*
D16*
X10000000Y31475000D03*
X10000000Y30525000D03*
X10000000Y58475000D03*
X10000000Y57525000D03*
D11*
X28950000Y1300000D03*
X28950000Y2250000D03*
X28950000Y3200000D03*
X26550000Y3200000D03*
X26550000Y2250000D03*
X26550000Y1300000D03*
D13*
X31400000Y5150000D03*
X31400000Y4650000D03*
X31400000Y4150000D03*
X32900000Y4150000D03*
X32900000Y4650000D03*
X32900000Y5150000D03*
D10*
X66250000Y24300000D03*
X66250000Y22700000D03*
D17*
X54500000Y48500000D03*
D12*
X63200000Y10500000D03*
X64800000Y10500000D03*
D14*
X50200000Y16600000D03*
X34700000Y52600000D03*
D11*
X28950000Y4550000D03*
X28950000Y5500000D03*
X28950000Y6450000D03*
X26550000Y6450000D03*
X26550000Y5500000D03*
X26550000Y4550000D03*
X28950000Y55300000D03*
X28950000Y56250000D03*
X28950000Y57200000D03*
X26550000Y57200000D03*
X26550000Y56250000D03*
X26550000Y55300000D03*
X75450000Y49550000D03*
X75450000Y50500000D03*
X75450000Y51450000D03*
X73050000Y51450000D03*
X73050000Y50500000D03*
X73050000Y49550000D03*
D14*
X19200000Y43600000D03*
D17*
X23500000Y52500000D03*
X8000000Y34500000D03*
X23500000Y19500000D03*
D10*
X76750000Y1700000D03*
X76750000Y3300000D03*
D12*
X28700000Y52750000D03*
X30300000Y52750000D03*
D16*
X10000000Y13475000D03*
X10000000Y12525000D03*
D12*
X79800000Y29900000D03*
X78200000Y29900000D03*
D11*
X13450000Y31550000D03*
X13450000Y32500000D03*
X13450000Y33450000D03*
X11050000Y33450000D03*
X11050000Y32500000D03*
X11050000Y31550000D03*
D16*
X72000000Y22475000D03*
X72000000Y21525000D03*
D10*
X16500000Y52850000D03*
X16500000Y51250000D03*
D13*
X15900000Y41150000D03*
X15900000Y40650000D03*
X15900000Y40150000D03*
X17400000Y40150000D03*
X17400000Y40650000D03*
X17400000Y41150000D03*
D18*
X85000000Y67500000D03*
X85000000Y67500000D03*
D17*
X54500000Y3500000D03*
X70000000Y14500000D03*
D11*
X59950000Y37300000D03*
X59950000Y38250000D03*
X59950000Y39200000D03*
X57550000Y39200000D03*
X57550000Y38250000D03*
X57550000Y37300000D03*
D17*
X54500000Y10500000D03*
D16*
X10000000Y67475000D03*
X10000000Y66525000D03*
D11*
X13450000Y40550000D03*
X13450000Y41500000D03*
X13450000Y42450000D03*
X11050000Y42450000D03*
X11050000Y41500000D03*
X11050000Y40550000D03*
D10*
X30250000Y64700000D03*
X30250000Y66300000D03*
D17*
X23500000Y12500000D03*
D18*
X85000000Y22500000D03*
X85000000Y22500000D03*
D11*
X59950000Y10300000D03*
X59950000Y11250000D03*
X59950000Y12200000D03*
X57550000Y12200000D03*
X57550000Y11250000D03*
X57550000Y10300000D03*
D17*
X39000000Y39500000D03*
D10*
X76750000Y28700000D03*
X76750000Y30300000D03*
X80500000Y24300000D03*
X80500000Y22700000D03*
D17*
X39000000Y1500000D03*
D10*
X65000000Y33300000D03*
X65000000Y31700000D03*
D11*
X44450000Y19300000D03*
X44450000Y20250000D03*
X44450000Y21200000D03*
X42050000Y21200000D03*
X42050000Y20250000D03*
X42050000Y19300000D03*
D17*
X54500000Y57500000D03*
D10*
X18500000Y42300000D03*
X18500000Y40700000D03*
X65000000Y15300000D03*
X65000000Y13700000D03*
X34000000Y69300000D03*
X34000000Y67700000D03*
D12*
X44200000Y34750000D03*
X45800000Y34750000D03*
D15*
X37000000Y70500000D03*
X37000000Y68500000D03*
X37000000Y66500000D03*
X37000000Y64500000D03*
D12*
X32200000Y28500000D03*
X33800000Y28500000D03*
D14*
X19200000Y16600000D03*
D11*
X13450000Y13550000D03*
X13450000Y14500000D03*
X13450000Y15450000D03*
X11050000Y15450000D03*
X11050000Y14500000D03*
X11050000Y13550000D03*
D10*
X61250000Y60550000D03*
X61250000Y58950000D03*
D11*
X59950000Y1300000D03*
X59950000Y2250000D03*
X59950000Y3200000D03*
X57550000Y3200000D03*
X57550000Y2250000D03*
X57550000Y1300000D03*
D12*
X44200000Y70750000D03*
X45800000Y70750000D03*
D11*
X44450000Y40550000D03*
X44450000Y41500000D03*
X44450000Y42450000D03*
X42050000Y42450000D03*
X42050000Y41500000D03*
X42050000Y40550000D03*
X44450000Y10300000D03*
X44450000Y11250000D03*
X44450000Y12200000D03*
X42050000Y12200000D03*
X42050000Y11250000D03*
X42050000Y10300000D03*
D12*
X47700000Y64500000D03*
X49300000Y64500000D03*
D15*
X68000000Y16500000D03*
X68000000Y14500000D03*
X68000000Y12500000D03*
X68000000Y10500000D03*
D10*
X63000000Y16850000D03*
X63000000Y15250000D03*
D16*
X25500000Y40475000D03*
X25500000Y39525000D03*
D10*
X76750000Y37700000D03*
X76750000Y39300000D03*
D12*
X59700000Y25750000D03*
X61300000Y25750000D03*
D10*
X19750000Y42300000D03*
X19750000Y40700000D03*
D12*
X28700000Y34750000D03*
X30300000Y34750000D03*
D17*
X70000000Y10500000D03*
D14*
X65700000Y52600000D03*
D10*
X66250000Y33300000D03*
X66250000Y31700000D03*
D12*
X10200000Y7750000D03*
X11800000Y7750000D03*
D17*
X8000000Y70500000D03*
D12*
X75200000Y70750000D03*
X76800000Y70750000D03*
D11*
X59950000Y67550000D03*
X59950000Y68500000D03*
X59950000Y69450000D03*
X57550000Y69450000D03*
X57550000Y68500000D03*
X57550000Y67550000D03*
D15*
X21500000Y43500000D03*
X21500000Y41500000D03*
X21500000Y39500000D03*
X21500000Y37500000D03*
D14*
X34700000Y34600000D03*
D12*
X47700000Y10500000D03*
X49300000Y10500000D03*
D13*
X31400000Y23150000D03*
X31400000Y22650000D03*
X31400000Y22150000D03*
X32900000Y22150000D03*
X32900000Y22650000D03*
X32900000Y23150000D03*
D12*
X63200000Y55500000D03*
X64800000Y55500000D03*
X56700000Y7750000D03*
X58300000Y7750000D03*
D10*
X81750000Y6300000D03*
X81750000Y4700000D03*
D17*
X39000000Y19500000D03*
D16*
X72000000Y40475000D03*
X72000000Y39525000D03*
D12*
X63200000Y37500000D03*
X64800000Y37500000D03*
D10*
X14750000Y55700000D03*
X14750000Y57300000D03*
D12*
X13200000Y16750000D03*
X14800000Y16750000D03*
D14*
X19200000Y7600000D03*
D12*
X32200000Y1500000D03*
X33800000Y1500000D03*
D11*
X44450000Y31550000D03*
X44450000Y32500000D03*
X44450000Y33450000D03*
X42050000Y33450000D03*
X42050000Y32500000D03*
X42050000Y31550000D03*
D10*
X78500000Y52850000D03*
X78500000Y51250000D03*
D17*
X23500000Y48500000D03*
D12*
X75200000Y61750000D03*
X76800000Y61750000D03*
D17*
X70000000Y7500000D03*
D12*
X72200000Y7750000D03*
X73800000Y7750000D03*
D10*
X76750000Y6550000D03*
X76750000Y4950000D03*
D17*
X8000000Y10500000D03*
X39000000Y23500000D03*
D11*
X13450000Y46300000D03*
X13450000Y47250000D03*
X13450000Y48200000D03*
X11050000Y48200000D03*
X11050000Y47250000D03*
X11050000Y46300000D03*
D16*
X25500000Y58475000D03*
X25500000Y57525000D03*
D17*
X54500000Y23500000D03*
D10*
X35250000Y69300000D03*
X35250000Y67700000D03*
D13*
X77900000Y32150000D03*
X77900000Y31650000D03*
X77900000Y31150000D03*
X79400000Y31150000D03*
X79400000Y31650000D03*
X79400000Y32150000D03*
D14*
X65700000Y16600000D03*
D10*
X76750000Y55700000D03*
X76750000Y57300000D03*
D17*
X70000000Y55500000D03*
D12*
X41200000Y7750000D03*
X42800000Y7750000D03*
X72200000Y70750000D03*
X73800000Y70750000D03*
X16700000Y10500000D03*
X18300000Y10500000D03*
D17*
X54500000Y70500000D03*
D10*
X49500000Y69300000D03*
X49500000Y67700000D03*
X78500000Y7850000D03*
X78500000Y6250000D03*
X47500000Y70850000D03*
X47500000Y69250000D03*
D14*
X65700000Y7600000D03*
D12*
X41200000Y61750000D03*
X42800000Y61750000D03*
D11*
X75450000Y37300000D03*
X75450000Y38250000D03*
X75450000Y39200000D03*
X73050000Y39200000D03*
X73050000Y38250000D03*
X73050000Y37300000D03*
D16*
X41000000Y13475000D03*
X41000000Y12525000D03*
D11*
X59950000Y64300000D03*
X59950000Y65250000D03*
X59950000Y66200000D03*
X57550000Y66200000D03*
X57550000Y65250000D03*
X57550000Y64300000D03*
D17*
X70000000Y19500000D03*
D10*
X32000000Y61850000D03*
X32000000Y60250000D03*
D11*
X13450000Y64300000D03*
X13450000Y65250000D03*
X13450000Y66200000D03*
X11050000Y66200000D03*
X11050000Y65250000D03*
X11050000Y64300000D03*
D10*
X14750000Y24550000D03*
X14750000Y22950000D03*
X76750000Y42550000D03*
X76750000Y40950000D03*
D16*
X25500000Y4475000D03*
X25500000Y3525000D03*
D14*
X65700000Y61600000D03*
D10*
X35250000Y6300000D03*
X35250000Y4700000D03*
D12*
X10200000Y70750000D03*
X11800000Y70750000D03*
D10*
X14750000Y19700000D03*
X14750000Y21300000D03*
D12*
X41200000Y43750000D03*
X42800000Y43750000D03*
D10*
X45750000Y60550000D03*
X45750000Y58950000D03*
D12*
X25700000Y34750000D03*
X27300000Y34750000D03*
D10*
X47500000Y61850000D03*
X47500000Y60250000D03*
X45750000Y42550000D03*
X45750000Y40950000D03*
X30250000Y33550000D03*
X30250000Y31950000D03*
D13*
X46900000Y5150000D03*
X46900000Y4650000D03*
X46900000Y4150000D03*
X48400000Y4150000D03*
X48400000Y4650000D03*
X48400000Y5150000D03*
D12*
X13200000Y43750000D03*
X14800000Y43750000D03*
D16*
X41000000Y4475000D03*
X41000000Y3525000D03*
D18*
X2500000Y49500000D03*
D17*
X70000000Y64500000D03*
D10*
X63000000Y34850000D03*
X63000000Y33250000D03*
D12*
X16700000Y64500000D03*
X18300000Y64500000D03*
D10*
X65000000Y6300000D03*
X65000000Y4700000D03*
D12*
X75200000Y34750000D03*
X76800000Y34750000D03*
X17800000Y11900000D03*
X16200000Y11900000D03*
D17*
X8000000Y23500000D03*
X70000000Y28500000D03*
X23500000Y23500000D03*
D12*
X13200000Y34750000D03*
X14800000Y34750000D03*
X28700000Y61750000D03*
X30300000Y61750000D03*
D16*
X72000000Y13475000D03*
X72000000Y12525000D03*
D12*
X64300000Y38900000D03*
X62700000Y38900000D03*
D15*
X21500000Y70500000D03*
X21500000Y68500000D03*
X21500000Y66500000D03*
X21500000Y64500000D03*
D11*
X44450000Y67550000D03*
X44450000Y68500000D03*
X44450000Y69450000D03*
X42050000Y69450000D03*
X42050000Y68500000D03*
X42050000Y67550000D03*
D17*
X23500000Y43500000D03*
D12*
X64300000Y65900000D03*
X62700000Y65900000D03*
D17*
X39000000Y46500000D03*
D10*
X18500000Y69300000D03*
X18500000Y67700000D03*
D12*
X63200000Y28500000D03*
X64800000Y28500000D03*
D10*
X32000000Y70850000D03*
X32000000Y69250000D03*
X14750000Y6550000D03*
X14750000Y4950000D03*
D12*
X78700000Y1500000D03*
X80300000Y1500000D03*
X48800000Y2900000D03*
X47200000Y2900000D03*
D14*
X81200000Y52600000D03*
D12*
X33300000Y38900000D03*
X31700000Y38900000D03*
D14*
X19200000Y61600000D03*
D12*
X28700000Y43750000D03*
X30300000Y43750000D03*
D10*
X81750000Y15300000D03*
X81750000Y13700000D03*
D11*
X59950000Y28300000D03*
X59950000Y29250000D03*
X59950000Y30200000D03*
X57550000Y30200000D03*
X57550000Y29250000D03*
X57550000Y28300000D03*
D12*
X28700000Y7750000D03*
X30300000Y7750000D03*
X59700000Y34750000D03*
X61300000Y34750000D03*
D14*
X65700000Y34600000D03*
D12*
X10200000Y16750000D03*
X11800000Y16750000D03*
D15*
X52500000Y43500000D03*
X52500000Y41500000D03*
X52500000Y39500000D03*
X52500000Y37500000D03*
D10*
X32000000Y16850000D03*
X32000000Y15250000D03*
D11*
X75450000Y4550000D03*
X75450000Y5500000D03*
X75450000Y6450000D03*
X73050000Y6450000D03*
X73050000Y5500000D03*
X73050000Y4550000D03*
D10*
X50750000Y15300000D03*
X50750000Y13700000D03*
D18*
X2500000Y58500000D03*
X2500000Y58500000D03*
D10*
X76750000Y69550000D03*
X76750000Y67950000D03*
D16*
X72000000Y31475000D03*
X72000000Y30525000D03*
D12*
X44200000Y61750000D03*
X45800000Y61750000D03*
X47700000Y46500000D03*
X49300000Y46500000D03*
D16*
X72000000Y58475000D03*
X72000000Y57525000D03*
D10*
X66250000Y51300000D03*
X66250000Y49700000D03*
D13*
X77900000Y23150000D03*
X77900000Y22650000D03*
X77900000Y22150000D03*
X79400000Y22150000D03*
X79400000Y22650000D03*
X79400000Y23150000D03*
D10*
X80500000Y42300000D03*
X80500000Y40700000D03*
D18*
X85000000Y31500000D03*
X85000000Y31500000D03*
D12*
X63200000Y46500000D03*
X64800000Y46500000D03*
X13200000Y70750000D03*
X14800000Y70750000D03*
D17*
X39000000Y48500000D03*
D11*
X44450000Y49550000D03*
X44450000Y50500000D03*
X44450000Y51450000D03*
X42050000Y51450000D03*
X42050000Y50500000D03*
X42050000Y49550000D03*
D10*
X50750000Y51300000D03*
X50750000Y49700000D03*
X19750000Y33300000D03*
X19750000Y31700000D03*
X30250000Y10700000D03*
X30250000Y12300000D03*
X19750000Y51300000D03*
X19750000Y49700000D03*
X18500000Y15300000D03*
X18500000Y13700000D03*
D17*
X23500000Y7500000D03*
D12*
X32200000Y55500000D03*
X33800000Y55500000D03*
D11*
X75450000Y22550000D03*
X75450000Y23500000D03*
X75450000Y24450000D03*
X73050000Y24450000D03*
X73050000Y23500000D03*
X73050000Y22550000D03*
D10*
X45750000Y1700000D03*
X45750000Y3300000D03*
D12*
X32200000Y10500000D03*
X33800000Y10500000D03*
D10*
X34000000Y6300000D03*
X34000000Y4700000D03*
X81750000Y33300000D03*
X81750000Y31700000D03*
D11*
X28950000Y22550000D03*
X28950000Y23500000D03*
X28950000Y24450000D03*
X26550000Y24450000D03*
X26550000Y23500000D03*
X26550000Y22550000D03*
D17*
X70000000Y30500000D03*
D10*
X30250000Y60550000D03*
X30250000Y58950000D03*
D11*
X75450000Y40550000D03*
X75450000Y41500000D03*
X75450000Y42450000D03*
X73050000Y42450000D03*
X73050000Y41500000D03*
X73050000Y40550000D03*
D18*
X85000000Y4500000D03*
X85000000Y4500000D03*
D11*
X75450000Y31550000D03*
X75450000Y32500000D03*
X75450000Y33450000D03*
X73050000Y33450000D03*
X73050000Y32500000D03*
X73050000Y31550000D03*
D12*
X47700000Y37500000D03*
X49300000Y37500000D03*
D10*
X49500000Y24300000D03*
X49500000Y22700000D03*
D17*
X39000000Y41500000D03*
D12*
X48800000Y11900000D03*
X47200000Y11900000D03*
D10*
X65000000Y60300000D03*
X65000000Y58700000D03*
D17*
X23500000Y39500000D03*
D10*
X14750000Y60550000D03*
X14750000Y58950000D03*
X65000000Y69300000D03*
X65000000Y67700000D03*
D11*
X13450000Y4550000D03*
X13450000Y5500000D03*
X13450000Y6450000D03*
X11050000Y6450000D03*
X11050000Y5500000D03*
X11050000Y4550000D03*
D13*
X46900000Y23150000D03*
X46900000Y22650000D03*
X46900000Y22150000D03*
X48400000Y22150000D03*
X48400000Y22650000D03*
X48400000Y23150000D03*
D11*
X13450000Y22550000D03*
X13450000Y23500000D03*
X13450000Y24450000D03*
X11050000Y24450000D03*
X11050000Y23500000D03*
X11050000Y22550000D03*
D18*
X2500000Y13500000D03*
D17*
X39000000Y68500000D03*
D12*
X78700000Y37500000D03*
X80300000Y37500000D03*
X75200000Y25750000D03*
X76800000Y25750000D03*
D10*
X50750000Y33300000D03*
X50750000Y31700000D03*
D11*
X59950000Y46300000D03*
X59950000Y47250000D03*
X59950000Y48200000D03*
X57550000Y48200000D03*
X57550000Y47250000D03*
X57550000Y46300000D03*
D10*
X45750000Y55700000D03*
X45750000Y57300000D03*
X76750000Y64700000D03*
X76750000Y66300000D03*
D12*
X72200000Y34750000D03*
X73800000Y34750000D03*
D13*
X31400000Y50150000D03*
X31400000Y49650000D03*
X31400000Y49150000D03*
X32900000Y49150000D03*
X32900000Y49650000D03*
X32900000Y50150000D03*
D17*
X39000000Y12500000D03*
D12*
X64300000Y56900000D03*
X62700000Y56900000D03*
D10*
X63000000Y7850000D03*
X63000000Y6250000D03*
X16500000Y34850000D03*
X16500000Y33250000D03*
D17*
X54500000Y28500000D03*
D10*
X49500000Y51300000D03*
X49500000Y49700000D03*
X45750000Y69550000D03*
X45750000Y67950000D03*
X19750000Y60300000D03*
X19750000Y58700000D03*
X18500000Y33300000D03*
X18500000Y31700000D03*
D11*
X28950000Y64300000D03*
X28950000Y65250000D03*
X28950000Y66200000D03*
X26550000Y66200000D03*
X26550000Y65250000D03*
X26550000Y64300000D03*
D12*
X17800000Y20900000D03*
X16200000Y20900000D03*
X17800000Y47900000D03*
X16200000Y47900000D03*
D10*
X61250000Y64700000D03*
X61250000Y66300000D03*
X81750000Y42300000D03*
X81750000Y40700000D03*
D17*
X8000000Y7500000D03*
X70000000Y48500000D03*
D16*
X25500000Y67475000D03*
X25500000Y66525000D03*
D17*
X39000000Y10500000D03*
X54500000Y46500000D03*
D12*
X47700000Y55500000D03*
X49300000Y55500000D03*
D17*
X54500000Y14500000D03*
X8000000Y21500000D03*
X8000000Y66500000D03*
D11*
X13450000Y58550000D03*
X13450000Y59500000D03*
X13450000Y60450000D03*
X11050000Y60450000D03*
X11050000Y59500000D03*
X11050000Y58550000D03*
X13450000Y67550000D03*
X13450000Y68500000D03*
X13450000Y69450000D03*
X11050000Y69450000D03*
X11050000Y68500000D03*
X11050000Y67550000D03*
D10*
X45750000Y33550000D03*
X45750000Y31950000D03*
D17*
X8000000Y68500000D03*
D10*
X61250000Y10700000D03*
X61250000Y12300000D03*
D11*
X13450000Y10300000D03*
X13450000Y11250000D03*
X13450000Y12200000D03*
X11050000Y12200000D03*
X11050000Y11250000D03*
X11050000Y10300000D03*
X75450000Y13550000D03*
X75450000Y14500000D03*
X75450000Y15450000D03*
X73050000Y15450000D03*
X73050000Y14500000D03*
X73050000Y13550000D03*
D16*
X41000000Y49475000D03*
X41000000Y48525000D03*
D12*
X56700000Y61750000D03*
X58300000Y61750000D03*
D16*
X25500000Y13475000D03*
X25500000Y12525000D03*
D10*
X35250000Y33300000D03*
X35250000Y31700000D03*
D14*
X65700000Y70600000D03*
D17*
X54500000Y55500000D03*
D12*
X32200000Y19500000D03*
X33800000Y19500000D03*
D15*
X21500000Y7500000D03*
X21500000Y5500000D03*
X21500000Y3500000D03*
X21500000Y1500000D03*
D12*
X79800000Y38900000D03*
X78200000Y38900000D03*
D10*
X45750000Y64700000D03*
X45750000Y66300000D03*
D14*
X34700000Y16600000D03*
D15*
X21500000Y25500000D03*
X21500000Y23500000D03*
X21500000Y21500000D03*
X21500000Y19500000D03*
D11*
X44450000Y46300000D03*
X44450000Y47250000D03*
X44450000Y48200000D03*
X42050000Y48200000D03*
X42050000Y47250000D03*
X42050000Y46300000D03*
D10*
X50750000Y24300000D03*
X50750000Y22700000D03*
D12*
X44200000Y52750000D03*
X45800000Y52750000D03*
D17*
X54500000Y25500000D03*
D12*
X17800000Y65900000D03*
X16200000Y65900000D03*
D10*
X49500000Y33300000D03*
X49500000Y31700000D03*
D12*
X13200000Y61750000D03*
X14800000Y61750000D03*
X59700000Y61750000D03*
X61300000Y61750000D03*
D17*
X70000000Y5500000D03*
D18*
X85000000Y58500000D03*
X85000000Y58500000D03*
D13*
X15900000Y23150000D03*
X15900000Y22650000D03*
X15900000Y22150000D03*
X17400000Y22150000D03*
X17400000Y22650000D03*
X17400000Y23150000D03*
D11*
X13450000Y37300000D03*
X13450000Y38250000D03*
X13450000Y39200000D03*
X11050000Y39200000D03*
X11050000Y38250000D03*
X11050000Y37300000D03*
D12*
X72200000Y43750000D03*
X73800000Y43750000D03*
X41200000Y52750000D03*
X42800000Y52750000D03*
D17*
X70000000Y68500000D03*
D10*
X30250000Y1700000D03*
X30250000Y3300000D03*
D12*
X75200000Y16750000D03*
X76800000Y16750000D03*
D13*
X62400000Y5150000D03*
X62400000Y4650000D03*
X62400000Y4150000D03*
X63900000Y4150000D03*
X63900000Y4650000D03*
X63900000Y5150000D03*
D12*
X25700000Y61750000D03*
X27300000Y61750000D03*
D16*
X56500000Y31475000D03*
X56500000Y30525000D03*
D12*
X32200000Y64500000D03*
X33800000Y64500000D03*
D10*
X45750000Y24550000D03*
X45750000Y22950000D03*
D14*
X50200000Y52600000D03*
D15*
X37000000Y61500000D03*
X37000000Y59500000D03*
X37000000Y57500000D03*
X37000000Y55500000D03*
D12*
X79800000Y2900000D03*
X78200000Y2900000D03*
D10*
X76750000Y51550000D03*
X76750000Y49950000D03*
X30250000Y69550000D03*
X30250000Y67950000D03*
X34000000Y51300000D03*
X34000000Y49700000D03*
X63000000Y70850000D03*
X63000000Y69250000D03*
D13*
X46900000Y41150000D03*
X46900000Y40650000D03*
X46900000Y40150000D03*
X48400000Y40150000D03*
X48400000Y40650000D03*
X48400000Y41150000D03*
D12*
X78700000Y28500000D03*
X80300000Y28500000D03*
D16*
X56500000Y22475000D03*
X56500000Y21525000D03*
D13*
X62400000Y59150000D03*
X62400000Y58650000D03*
X62400000Y58150000D03*
X63900000Y58150000D03*
X63900000Y58650000D03*
X63900000Y59150000D03*
D17*
X54500000Y21500000D03*
D10*
X63000000Y43850000D03*
X63000000Y42250000D03*
D15*
X68000000Y52500000D03*
X68000000Y50500000D03*
X68000000Y48500000D03*
X68000000Y46500000D03*
D14*
X50200000Y7600000D03*
D17*
X39000000Y64500000D03*
D12*
X16700000Y46500000D03*
X18300000Y46500000D03*
X33300000Y56900000D03*
X31700000Y56900000D03*
D17*
X39000000Y59500000D03*
D10*
X66250000Y60300000D03*
X66250000Y58700000D03*
D13*
X62400000Y68150000D03*
X62400000Y67650000D03*
X62400000Y67150000D03*
X63900000Y67150000D03*
X63900000Y67650000D03*
X63900000Y68150000D03*
D12*
X78700000Y46500000D03*
X80300000Y46500000D03*
D10*
X18500000Y6300000D03*
X18500000Y4700000D03*
D12*
X78700000Y19500000D03*
X80300000Y19500000D03*
X28700000Y25750000D03*
X30300000Y25750000D03*
X10200000Y25750000D03*
X11800000Y25750000D03*
D16*
X56500000Y40475000D03*
X56500000Y39525000D03*
D17*
X54500000Y37500000D03*
D16*
X41000000Y67475000D03*
X41000000Y66525000D03*
D17*
X70000000Y39500000D03*
D12*
X56700000Y70750000D03*
X58300000Y70750000D03*
D11*
X44450000Y55300000D03*
X44450000Y56250000D03*
X44450000Y57200000D03*
X42050000Y57200000D03*
X42050000Y56250000D03*
X42050000Y55300000D03*
D10*
X76750000Y19700000D03*
X76750000Y21300000D03*
D18*
X2500000Y22500000D03*
D10*
X63000000Y61850000D03*
X63000000Y60250000D03*
D15*
X6000000Y25500000D03*
X6000000Y23500000D03*
X6000000Y21500000D03*
X6000000Y19500000D03*
D10*
X61250000Y1700000D03*
X61250000Y3300000D03*
X78500000Y43850000D03*
X78500000Y42250000D03*
X76750000Y33550000D03*
X76750000Y31950000D03*
D11*
X75450000Y10300000D03*
X75450000Y11250000D03*
X75450000Y12200000D03*
X73050000Y12200000D03*
X73050000Y11250000D03*
X73050000Y10300000D03*
D12*
X75200000Y7750000D03*
X76800000Y7750000D03*
D17*
X39000000Y50500000D03*
D11*
X59950000Y4550000D03*
X59950000Y5500000D03*
X59950000Y6450000D03*
X57550000Y6450000D03*
X57550000Y5500000D03*
X57550000Y4550000D03*
D17*
X39000000Y37500000D03*
X70000000Y52500000D03*
D14*
X19200000Y34600000D03*
D12*
X75200000Y43750000D03*
X76800000Y43750000D03*
D17*
X54500000Y43500000D03*
D11*
X28950000Y40550000D03*
X28950000Y41500000D03*
X28950000Y42450000D03*
X26550000Y42450000D03*
X26550000Y41500000D03*
X26550000Y40550000D03*
D17*
X39000000Y30500000D03*
X70000000Y50500000D03*
D10*
X76750000Y15550000D03*
X76750000Y13950000D03*
X16500000Y16850000D03*
X16500000Y15250000D03*
D17*
X39000000Y7500000D03*
X70000000Y16500000D03*
X8000000Y46500000D03*
D10*
X34000000Y33300000D03*
X34000000Y31700000D03*
D12*
X44200000Y43750000D03*
X45800000Y43750000D03*
X47700000Y1500000D03*
X49300000Y1500000D03*
D14*
X50200000Y70600000D03*
D10*
X14750000Y10700000D03*
X14750000Y12300000D03*
D16*
X25500000Y31475000D03*
X25500000Y30525000D03*
D10*
X63000000Y25850000D03*
X63000000Y24250000D03*
D15*
X37000000Y16500000D03*
X37000000Y14500000D03*
X37000000Y12500000D03*
X37000000Y10500000D03*
D12*
X25700000Y16750000D03*
X27300000Y16750000D03*
D17*
X39000000Y32500000D03*
X23500000Y3500000D03*
D12*
X63200000Y19500000D03*
X64800000Y19500000D03*
X13200000Y52750000D03*
X14800000Y52750000D03*
X59700000Y16750000D03*
X61300000Y16750000D03*
D15*
X52500000Y52500000D03*
X52500000Y50500000D03*
X52500000Y48500000D03*
X52500000Y46500000D03*
D12*
X17800000Y29900000D03*
X16200000Y29900000D03*
D15*
X6000000Y34500000D03*
X6000000Y32500000D03*
X6000000Y30500000D03*
X6000000Y28500000D03*
D11*
X28950000Y58550000D03*
X28950000Y59500000D03*
X28950000Y60450000D03*
X26550000Y60450000D03*
X26550000Y59500000D03*
X26550000Y58550000D03*
D12*
X16700000Y55500000D03*
X18300000Y55500000D03*
D17*
X23500000Y59500000D03*
X39000000Y3500000D03*
X8000000Y41500000D03*
X8000000Y39500000D03*
D14*
X81200000Y70600000D03*
D16*
X25500000Y22475000D03*
X25500000Y21525000D03*
D12*
X75200000Y52750000D03*
X76800000Y52750000D03*
X16700000Y37500000D03*
X18300000Y37500000D03*
D10*
X30250000Y19700000D03*
X30250000Y21300000D03*
D12*
X25700000Y43750000D03*
X27300000Y43750000D03*
D11*
X28950000Y19300000D03*
X28950000Y20250000D03*
X28950000Y21200000D03*
X26550000Y21200000D03*
X26550000Y20250000D03*
X26550000Y19300000D03*
D17*
X23500000Y46500000D03*
D11*
X28950000Y37300000D03*
X28950000Y38250000D03*
X28950000Y39200000D03*
X26550000Y39200000D03*
X26550000Y38250000D03*
X26550000Y37300000D03*
X44450000Y28300000D03*
X44450000Y29250000D03*
X44450000Y30200000D03*
X42050000Y30200000D03*
X42050000Y29250000D03*
X42050000Y28300000D03*
D10*
X14750000Y37700000D03*
X14750000Y39300000D03*
D17*
X23500000Y16500000D03*
X39000000Y66500000D03*
D12*
X56700000Y34750000D03*
X58300000Y34750000D03*
D11*
X28950000Y10300000D03*
X28950000Y11250000D03*
X28950000Y12200000D03*
X26550000Y12200000D03*
X26550000Y11250000D03*
X26550000Y10300000D03*
D13*
X46900000Y32150000D03*
X46900000Y31650000D03*
X46900000Y31150000D03*
X48400000Y31150000D03*
X48400000Y31650000D03*
X48400000Y32150000D03*
D11*
X13450000Y28300000D03*
X13450000Y29250000D03*
X13450000Y30200000D03*
X11050000Y30200000D03*
X11050000Y29250000D03*
X11050000Y28300000D03*
D10*
X61250000Y69550000D03*
X61250000Y67950000D03*
D11*
X59950000Y19300000D03*
X59950000Y20250000D03*
X59950000Y21200000D03*
X57550000Y21200000D03*
X57550000Y20250000D03*
X57550000Y19300000D03*
D17*
X54500000Y16500000D03*
D10*
X47500000Y52850000D03*
X47500000Y51250000D03*
X66250000Y6300000D03*
X66250000Y4700000D03*
D17*
X8000000Y16500000D03*
D13*
X77900000Y59150000D03*
X77900000Y58650000D03*
X77900000Y58150000D03*
X79400000Y58150000D03*
X79400000Y58650000D03*
X79400000Y59150000D03*
D12*
X44200000Y7750000D03*
X45800000Y7750000D03*
D16*
X41000000Y58475000D03*
X41000000Y57525000D03*
D13*
X62400000Y23150000D03*
X62400000Y22650000D03*
X62400000Y22150000D03*
X63900000Y22150000D03*
X63900000Y22650000D03*
X63900000Y23150000D03*
X77900000Y68150000D03*
X77900000Y67650000D03*
X77900000Y67150000D03*
X79400000Y67150000D03*
X79400000Y67650000D03*
X79400000Y68150000D03*
D14*
X19200000Y70600000D03*
D18*
X85000000Y40500000D03*
X85000000Y40500000D03*
D10*
X66250000Y15300000D03*
X66250000Y13700000D03*
D17*
X8000000Y50500000D03*
D10*
X35250000Y42300000D03*
X35250000Y40700000D03*
X19750000Y6300000D03*
X19750000Y4700000D03*
D14*
X81200000Y61600000D03*
D15*
X52500000Y25500000D03*
X52500000Y23500000D03*
X52500000Y21500000D03*
X52500000Y19500000D03*
D10*
X16500000Y43850000D03*
X16500000Y42250000D03*
D17*
X70000000Y41500000D03*
D10*
X65000000Y24300000D03*
X65000000Y22700000D03*
D15*
X6000000Y7500000D03*
X6000000Y5500000D03*
X6000000Y3500000D03*
X6000000Y1500000D03*
D17*
X23500000Y30500000D03*
D16*
X72000000Y4475000D03*
X72000000Y3525000D03*
D10*
X34000000Y60300000D03*
X34000000Y58700000D03*
D12*
X25700000Y7750000D03*
X27300000Y7750000D03*
D18*
X2500000Y4500000D03*
D10*
X61250000Y55700000D03*
X61250000Y57300000D03*
D15*
X68000000Y70500000D03*
X68000000Y68500000D03*
X68000000Y66500000D03*
X68000000Y64500000D03*
D17*
X23500000Y21500000D03*
D13*
X31400000Y59150000D03*
X31400000Y58650000D03*
X31400000Y58150000D03*
X32900000Y58150000D03*
X32900000Y58650000D03*
X32900000Y59150000D03*
X62400000Y41150000D03*
X62400000Y40650000D03*
X62400000Y40150000D03*
X63900000Y40150000D03*
X63900000Y40650000D03*
X63900000Y41150000D03*
D17*
X8000000Y30500000D03*
D10*
X47500000Y25850000D03*
X47500000Y24250000D03*
D11*
X44450000Y37300000D03*
X44450000Y38250000D03*
X44450000Y39200000D03*
X42050000Y39200000D03*
X42050000Y38250000D03*
X42050000Y37300000D03*
X59950000Y55300000D03*
X59950000Y56250000D03*
X59950000Y57200000D03*
X57550000Y57200000D03*
X57550000Y56250000D03*
X57550000Y55300000D03*
D15*
X37000000Y43500000D03*
X37000000Y41500000D03*
X37000000Y39500000D03*
X37000000Y37500000D03*
D16*
X10000000Y40475000D03*
X10000000Y39525000D03*
D10*
X16500000Y61850000D03*
X16500000Y60250000D03*
D17*
X70000000Y46500000D03*
D12*
X78700000Y64500000D03*
X80300000Y64500000D03*
X32200000Y37500000D03*
X33800000Y37500000D03*
D10*
X49500000Y15300000D03*
X49500000Y13700000D03*
X14750000Y28700000D03*
X14750000Y30300000D03*
D11*
X44450000Y58550000D03*
X44450000Y59500000D03*
X44450000Y60450000D03*
X42050000Y60450000D03*
X42050000Y59500000D03*
X42050000Y58550000D03*
D17*
X54500000Y19500000D03*
D10*
X50750000Y60300000D03*
X50750000Y58700000D03*
D12*
X41200000Y34750000D03*
X42800000Y34750000D03*
D17*
X23500000Y10500000D03*
X8000000Y14500000D03*
X70000000Y32500000D03*
D12*
X47700000Y28500000D03*
X49300000Y28500000D03*
X16700000Y28500000D03*
X18300000Y28500000D03*
D15*
X21500000Y52500000D03*
X21500000Y50500000D03*
X21500000Y48500000D03*
X21500000Y46500000D03*
D17*
X8000000Y48500000D03*
D11*
X75450000Y58550000D03*
X75450000Y59500000D03*
X75450000Y60450000D03*
X73050000Y60450000D03*
X73050000Y59500000D03*
X73050000Y58550000D03*
D17*
X70000000Y70500000D03*
X54500000Y61500000D03*
D10*
X45750000Y10700000D03*
X45750000Y12300000D03*
D12*
X48800000Y56900000D03*
X47200000Y56900000D03*
X59700000Y70750000D03*
X61300000Y70750000D03*
X17800000Y56900000D03*
X16200000Y56900000D03*
D13*
X46900000Y14150000D03*
X46900000Y13650000D03*
X46900000Y13150000D03*
X48400000Y13150000D03*
X48400000Y13650000D03*
X48400000Y14150000D03*
D10*
X34000000Y24300000D03*
X34000000Y22700000D03*
X61250000Y24550000D03*
X61250000Y22950000D03*
D15*
X37000000Y52500000D03*
X37000000Y50500000D03*
X37000000Y48500000D03*
X37000000Y46500000D03*
D12*
X59700000Y43750000D03*
X61300000Y43750000D03*
D15*
X21500000Y34500000D03*
X21500000Y32500000D03*
X21500000Y30500000D03*
X21500000Y28500000D03*
D17*
X8000000Y43500000D03*
D12*
X48800000Y29900000D03*
X47200000Y29900000D03*
D10*
X30250000Y37700000D03*
X30250000Y39300000D03*
D11*
X59950000Y22550000D03*
X59950000Y23500000D03*
X59950000Y24450000D03*
X57550000Y24450000D03*
X57550000Y23500000D03*
X57550000Y22550000D03*
D13*
X77900000Y41150000D03*
X77900000Y40650000D03*
X77900000Y40150000D03*
X79400000Y40150000D03*
X79400000Y40650000D03*
X79400000Y41150000D03*
D15*
X68000000Y61500000D03*
X68000000Y59500000D03*
X68000000Y57500000D03*
X68000000Y55500000D03*
D10*
X76750000Y24550000D03*
X76750000Y22950000D03*
X35250000Y24300000D03*
X35250000Y22700000D03*
D17*
X39000000Y14500000D03*
D12*
X25700000Y52750000D03*
X27300000Y52750000D03*
D11*
X28950000Y67550000D03*
X28950000Y68500000D03*
X28950000Y69450000D03*
X26550000Y69450000D03*
X26550000Y68500000D03*
X26550000Y67550000D03*
D10*
X78500000Y70850000D03*
X78500000Y69250000D03*
D14*
X65700000Y25600000D03*
D17*
X54500000Y5500000D03*
D13*
X62400000Y14150000D03*
X62400000Y13650000D03*
X62400000Y13150000D03*
X63900000Y13150000D03*
X63900000Y13650000D03*
X63900000Y14150000D03*
X15900000Y68150000D03*
X15900000Y67650000D03*
X15900000Y67150000D03*
X17400000Y67150000D03*
X17400000Y67650000D03*
X17400000Y68150000D03*
D14*
X34700000Y61600000D03*
D10*
X30250000Y24550000D03*
X30250000Y22950000D03*
D11*
X44450000Y64300000D03*
X44450000Y65250000D03*
X44450000Y66200000D03*
X42050000Y66200000D03*
X42050000Y65250000D03*
X42050000Y64300000D03*
D13*
X46900000Y50150000D03*
X46900000Y49650000D03*
X46900000Y49150000D03*
X48400000Y49150000D03*
X48400000Y49650000D03*
X48400000Y50150000D03*
D10*
X19750000Y24300000D03*
X19750000Y22700000D03*
X45750000Y46700000D03*
X45750000Y48300000D03*
D13*
X15900000Y59150000D03*
X15900000Y58650000D03*
X15900000Y58150000D03*
X17400000Y58150000D03*
X17400000Y58650000D03*
X17400000Y59150000D03*
D17*
X70000000Y34500000D03*
D15*
X68000000Y34500000D03*
X68000000Y32500000D03*
X68000000Y30500000D03*
X68000000Y28500000D03*
D10*
X63000000Y52850000D03*
X63000000Y51250000D03*
X61250000Y46700000D03*
X61250000Y48300000D03*
D16*
X41000000Y22475000D03*
X41000000Y21525000D03*
D10*
X65000000Y42300000D03*
X65000000Y40700000D03*
D17*
X70000000Y37500000D03*
D10*
X81750000Y60300000D03*
X81750000Y58700000D03*
D17*
X8000000Y55500000D03*
D10*
X32000000Y52850000D03*
X32000000Y51250000D03*
D17*
X8000000Y64500000D03*
D10*
X35250000Y51300000D03*
X35250000Y49700000D03*
D17*
X70000000Y25500000D03*
X54500000Y66500000D03*
D11*
X28950000Y49550000D03*
X28950000Y50500000D03*
X28950000Y51450000D03*
X26550000Y51450000D03*
X26550000Y50500000D03*
X26550000Y49550000D03*
D12*
X64300000Y29900000D03*
X62700000Y29900000D03*
X10200000Y34750000D03*
X11800000Y34750000D03*
D17*
X23500000Y61500000D03*
D10*
X50750000Y42300000D03*
X50750000Y40700000D03*
D11*
X59950000Y58550000D03*
X59950000Y59500000D03*
X59950000Y60450000D03*
X57550000Y60450000D03*
X57550000Y59500000D03*
X57550000Y58550000D03*
D17*
X23500000Y14500000D03*
D15*
X21500000Y61500000D03*
X21500000Y59500000D03*
X21500000Y57500000D03*
X21500000Y55500000D03*
D10*
X80500000Y15300000D03*
X80500000Y13700000D03*
D15*
X52500000Y34500000D03*
X52500000Y32500000D03*
X52500000Y30500000D03*
X52500000Y28500000D03*
D12*
X28700000Y16750000D03*
X30300000Y16750000D03*
D10*
X81750000Y24300000D03*
X81750000Y22700000D03*
D17*
X70000000Y1500000D03*
D10*
X14750000Y15550000D03*
X14750000Y13950000D03*
D12*
X44200000Y25750000D03*
X45800000Y25750000D03*
D17*
X23500000Y28500000D03*
D10*
X80500000Y6300000D03*
X80500000Y4700000D03*
X14750000Y33550000D03*
X14750000Y31950000D03*
X14750000Y69550000D03*
X14750000Y67950000D03*
D18*
X2500000Y67500000D03*
X2500000Y67500000D03*
D17*
X8000000Y3500000D03*
D11*
X44450000Y13550000D03*
X44450000Y14500000D03*
X44450000Y15450000D03*
X42050000Y15450000D03*
X42050000Y14500000D03*
X42050000Y13550000D03*
D12*
X41200000Y16750000D03*
X42800000Y16750000D03*
D17*
X70000000Y61500000D03*
D12*
X41200000Y70750000D03*
X42800000Y70750000D03*
D17*
X70000000Y21500000D03*
X23500000Y50500000D03*
D12*
X72200000Y25750000D03*
X73800000Y25750000D03*
X72200000Y61750000D03*
X73800000Y61750000D03*
D10*
X61250000Y28700000D03*
X61250000Y30300000D03*
D17*
X70000000Y66500000D03*
X70000000Y12500000D03*
D10*
X80500000Y51300000D03*
X80500000Y49700000D03*
X45750000Y19700000D03*
X45750000Y21300000D03*
D11*
X13450000Y1300000D03*
X13450000Y2250000D03*
X13450000Y3200000D03*
X11050000Y3200000D03*
X11050000Y2250000D03*
X11050000Y1300000D03*
D10*
X14750000Y51550000D03*
X14750000Y49950000D03*
D14*
X81200000Y7600000D03*
D17*
X54500000Y1500000D03*
D10*
X47500000Y16850000D03*
X47500000Y15250000D03*
D17*
X70000000Y59500000D03*
D14*
X50200000Y43600000D03*
D17*
X8000000Y5500000D03*
D12*
X41200000Y25750000D03*
X42800000Y25750000D03*
X10200000Y52750000D03*
X11800000Y52750000D03*
D15*
X52500000Y16500000D03*
X52500000Y14500000D03*
X52500000Y12500000D03*
X52500000Y10500000D03*
D10*
X61250000Y6550000D03*
X61250000Y4950000D03*
X66250000Y42300000D03*
X66250000Y40700000D03*
D12*
X48800000Y38900000D03*
X47200000Y38900000D03*
D10*
X19750000Y15300000D03*
X19750000Y13700000D03*
X30250000Y28700000D03*
X30250000Y30300000D03*
D11*
X59950000Y49550000D03*
X59950000Y50500000D03*
X59950000Y51450000D03*
X57550000Y51450000D03*
X57550000Y50500000D03*
X57550000Y49550000D03*
D14*
X34700000Y25600000D03*
D10*
X45750000Y28700000D03*
X45750000Y30300000D03*
D17*
X8000000Y32500000D03*
D16*
X10000000Y4475000D03*
X10000000Y3525000D03*
D14*
X34700000Y43600000D03*
D12*
X79800000Y20900000D03*
X78200000Y20900000D03*
X56700000Y16750000D03*
X58300000Y16750000D03*
X25700000Y70750000D03*
X27300000Y70750000D03*
D10*
X45750000Y6550000D03*
X45750000Y4950000D03*
D17*
X39000000Y5500000D03*
D18*
X2500000Y31500000D03*
D17*
X54500000Y32500000D03*
D18*
X2500000Y40500000D03*
D11*
X28950000Y28300000D03*
X28950000Y29250000D03*
X28950000Y30200000D03*
X26550000Y30200000D03*
X26550000Y29250000D03*
X26550000Y28300000D03*
D16*
X72000000Y67475000D03*
X72000000Y66525000D03*
D18*
X85000000Y49500000D03*
X85000000Y49500000D03*
D10*
X45750000Y37700000D03*
X45750000Y39300000D03*
D12*
X78700000Y10500000D03*
X80300000Y10500000D03*
D17*
X8000000Y28500000D03*
D12*
X63200000Y64500000D03*
X64800000Y64500000D03*
D11*
X44450000Y1300000D03*
X44450000Y2250000D03*
X44450000Y3200000D03*
X42050000Y3200000D03*
X42050000Y2250000D03*
X42050000Y1300000D03*
D17*
X54500000Y34500000D03*
D10*
X78500000Y34850000D03*
X78500000Y33250000D03*
X50750000Y6300000D03*
X50750000Y4700000D03*
D17*
X23500000Y41500000D03*
D14*
X19200000Y25600000D03*
D17*
X54500000Y30500000D03*
D12*
X48800000Y20900000D03*
X47200000Y20900000D03*
D17*
X23500000Y57500000D03*
D16*
X10000000Y22475000D03*
X10000000Y21525000D03*
D10*
X19750000Y69300000D03*
X19750000Y67700000D03*
X80500000Y60300000D03*
X80500000Y58700000D03*
X50750000Y69300000D03*
X50750000Y67700000D03*
X14750000Y42550000D03*
X14750000Y40950000D03*
D17*
X39000000Y43500000D03*
D12*
X64300000Y20900000D03*
X62700000Y20900000D03*
D15*
X6000000Y52500000D03*
X6000000Y50500000D03*
X6000000Y48500000D03*
X6000000Y46500000D03*
D17*
X39000000Y25500000D03*
D14*
X50200000Y25600000D03*
D10*
X45750000Y51550000D03*
X45750000Y49950000D03*
D12*
X17800000Y2900000D03*
X16200000Y2900000D03*
D17*
X23500000Y5500000D03*
X23500000Y55500000D03*
D10*
X30250000Y46700000D03*
X30250000Y48300000D03*
X32000000Y43850000D03*
X32000000Y42250000D03*
D12*
X47700000Y19500000D03*
X49300000Y19500000D03*
X56700000Y25750000D03*
X58300000Y25750000D03*
D11*
X75450000Y67550000D03*
X75450000Y68500000D03*
X75450000Y69450000D03*
X73050000Y69450000D03*
X73050000Y68500000D03*
X73050000Y67550000D03*
D14*
X19200000Y52600000D03*
D17*
X23500000Y37500000D03*
D10*
X32000000Y34850000D03*
X32000000Y33250000D03*
D16*
X56500000Y4475000D03*
X56500000Y3525000D03*
D10*
X76750000Y46700000D03*
X76750000Y48300000D03*
D13*
X46900000Y59150000D03*
X46900000Y58650000D03*
X46900000Y58150000D03*
X48400000Y58150000D03*
X48400000Y58650000D03*
X48400000Y59150000D03*
D14*
X81200000Y16600000D03*
D13*
X77900000Y5150000D03*
X77900000Y4650000D03*
X77900000Y4150000D03*
X79400000Y4150000D03*
X79400000Y4650000D03*
X79400000Y5150000D03*
D11*
X75450000Y64300000D03*
X75450000Y65250000D03*
X75450000Y66200000D03*
X73050000Y66200000D03*
X73050000Y65250000D03*
X73050000Y64300000D03*
D10*
X34000000Y15300000D03*
X34000000Y13700000D03*
X16500000Y70850000D03*
X16500000Y69250000D03*
D15*
X6000000Y16500000D03*
X6000000Y14500000D03*
X6000000Y12500000D03*
X6000000Y10500000D03*
D12*
X25700000Y25750000D03*
X27300000Y25750000D03*
D10*
X18500000Y60300000D03*
X18500000Y58700000D03*
D17*
X39000000Y21500000D03*
D10*
X65000000Y51300000D03*
X65000000Y49700000D03*
D11*
X75450000Y19300000D03*
X75450000Y20250000D03*
X75450000Y21200000D03*
X73050000Y21200000D03*
X73050000Y20250000D03*
X73050000Y19300000D03*
D15*
X68000000Y43500000D03*
X68000000Y41500000D03*
X68000000Y39500000D03*
X68000000Y37500000D03*
D13*
X62400000Y32150000D03*
X62400000Y31650000D03*
X62400000Y31150000D03*
X63900000Y31150000D03*
X63900000Y31650000D03*
X63900000Y32150000D03*
D17*
X39000000Y28500000D03*
D14*
X50200000Y61600000D03*
D12*
X44200000Y16750000D03*
X45800000Y16750000D03*
X28700000Y70750000D03*
X30300000Y70750000D03*
D16*
X56500000Y67475000D03*
X56500000Y66525000D03*
D13*
X31400000Y41150000D03*
X31400000Y40650000D03*
X31400000Y40150000D03*
X32900000Y40150000D03*
X32900000Y40650000D03*
X32900000Y41150000D03*
D11*
X44450000Y4550000D03*
X44450000Y5500000D03*
X44450000Y6450000D03*
X42050000Y6450000D03*
X42050000Y5500000D03*
X42050000Y4550000D03*
D16*
X41000000Y40475000D03*
X41000000Y39525000D03*
D12*
X79800000Y11900000D03*
X78200000Y11900000D03*
X13200000Y7750000D03*
X14800000Y7750000D03*
D17*
X23500000Y25500000D03*
X54500000Y64500000D03*
X54500000Y68500000D03*
D11*
X59950000Y13550000D03*
X59950000Y14500000D03*
X59950000Y15450000D03*
X57550000Y15450000D03*
X57550000Y14500000D03*
X57550000Y13550000D03*
D17*
X23500000Y66500000D03*
D13*
X77900000Y14150000D03*
X77900000Y13650000D03*
X77900000Y13150000D03*
X79400000Y13150000D03*
X79400000Y13650000D03*
X79400000Y14150000D03*
D15*
X6000000Y70500000D03*
X6000000Y68500000D03*
X6000000Y66500000D03*
X6000000Y64500000D03*
D10*
X47500000Y7850000D03*
X47500000Y6250000D03*
D13*
X31400000Y68150000D03*
X31400000Y67650000D03*
X31400000Y67150000D03*
X32900000Y67150000D03*
X32900000Y67650000D03*
X32900000Y68150000D03*
D10*
X78500000Y25850000D03*
X78500000Y24250000D03*
D14*
X81200000Y25600000D03*
D19*
X66150000Y47785000D03*
X66150000Y46515000D03*
X19650000Y20785000D03*
X19650000Y19515000D03*
X35150000Y11785000D03*
X35150000Y10515000D03*
X35150000Y65785000D03*
X35150000Y64515000D03*
X35150000Y56785000D03*
X35150000Y55515000D03*
X50650000Y2785000D03*
X50650000Y1515000D03*
X19650000Y29785000D03*
X19650000Y28515000D03*
X50650000Y20785000D03*
X50650000Y19515000D03*
X66150000Y29785000D03*
X66150000Y28515000D03*
X35150000Y29785000D03*
X35150000Y28515000D03*
X35150000Y2785000D03*
X35150000Y1515000D03*
X66150000Y38785000D03*
X66150000Y37515000D03*
X19650000Y11785000D03*
X19650000Y10515000D03*
X50650000Y38785000D03*
X50650000Y37515000D03*
X19650000Y47785000D03*
X19650000Y46515000D03*
X81650000Y2785000D03*
X81650000Y1515000D03*
X81650000Y11785000D03*
X81650000Y10515000D03*
X66150000Y11785000D03*
X66150000Y10515000D03*
X81650000Y56785000D03*
X81650000Y55515000D03*
X66150000Y56785000D03*
X66150000Y55515000D03*
X19650000Y38785000D03*
X19650000Y37515000D03*
X66150000Y20785000D03*
X66150000Y19515000D03*
X81650000Y38785000D03*
X81650000Y37515000D03*
X35150000Y20785000D03*
X35150000Y19515000D03*
X66150000Y2785000D03*
X66150000Y1515000D03*
X50650000Y65785000D03*
X50650000Y64515000D03*
X81650000Y20785000D03*
X81650000Y19515000D03*
X50650000Y47785000D03*
X50650000Y46515000D03*
X50650000Y56785000D03*
X50650000Y55515000D03*
X81650000Y47785000D03*
X81650000Y46515000D03*
X19650000Y65785000D03*
X19650000Y64515000D03*
X81650000Y65785000D03*
X81650000Y64515000D03*
X66150000Y65785000D03*
X66150000Y64515000D03*
X35150000Y38785000D03*
X35150000Y37515000D03*
X19650000Y2785000D03*
X19650000Y1515000D03*
X50650000Y11785000D03*
X50650000Y10515000D03*
X35150000Y47785000D03*
X35150000Y46515000D03*
X19650000Y56785000D03*
X19650000Y55515000D03*
X50650000Y29785000D03*
X50650000Y28515000D03*
X81650000Y29785000D03*
X81650000Y28515000D03*
M02*
